<?xml version="1.0" standalone="no"?>
<!DOCTYPE svg PUBLIC "-//W3C//DTD SVG 20010904//EN"
 "http://www.w3.org/TR/2001/REC-SVG-20010904/DTD/svg10.dtd">
<svg version="1.0" xmlns="http://www.w3.org/2000/svg"
 width="700.000000pt" height="700.000000pt" viewBox="0 0 700.000000 700.000000"
 preserveAspectRatio="xMidYMid meet">
<metadata>
Created by potrace 1.14, written by Peter Selinger 2001-2017
</metadata>
<g transform="translate(0.000000,700.000000) scale(0.100000,-0.100000)"
fill="#000000" stroke="none">
<path d="M3398 6142 c-54 -119 -106 -237 -117 -262 -188 -422 -259 -575 -268
-575 -5 0 -21 8 -34 18 -29 21 -230 166 -616 445 -161 116 -295 207 -298 202
-3 -4 -3 -14 -1 -22 3 -7 7 -44 11 -83 3 -38 8 -83 10 -99 2 -16 7 -59 10 -95
4 -36 8 -77 10 -91 3 -28 14 -141 20 -210 3 -25 7 -61 10 -80 3 -19 7 -60 10
-90 6 -62 13 -126 20 -185 2 -22 7 -71 10 -110 4 -38 7 -74 8 -80 1 -5 -7 -9
-18 -9 -27 2 -152 14 -195 19 -19 3 -60 7 -90 10 -30 3 -73 7 -95 10 -22 2
-71 7 -110 10 -38 3 -81 8 -95 10 -14 2 -56 7 -95 10 -38 3 -83 8 -100 10 -16
2 -64 6 -105 10 -41 4 -88 9 -105 11 -16 2 -59 7 -95 10 l-64 7 19 -29 c10
-16 55 -78 99 -139 45 -60 89 -121 99 -135 9 -14 34 -48 55 -76 20 -28 71 -98
112 -155 41 -57 79 -109 85 -116 5 -7 27 -36 48 -65 21 -29 67 -93 103 -142
35 -48 64 -91 64 -95 0 -3 -170 -81 -378 -173 -536 -238 -664 -296 -674 -306
-7 -7 -1 -13 13 -17 13 -5 51 -20 84 -36 33 -15 98 -44 145 -64 47 -21 114
-51 150 -67 36 -17 101 -46 145 -65 44 -19 98 -43 120 -53 120 -55 176 -80
180 -80 2 0 41 -17 87 -39 46 -21 93 -41 106 -45 12 -4 22 -10 22 -14 0 -4
-63 -95 -140 -202 -125 -173 -206 -287 -305 -426 -16 -23 -75 -104 -130 -180
-55 -77 -98 -141 -97 -144 3 -6 137 3 202 15 8 1 51 6 94 10 43 4 86 8 95 10
9 1 52 6 96 9 44 4 91 9 105 11 14 2 54 6 90 9 36 4 75 8 85 10 11 2 58 7 105
11 47 4 92 8 100 10 8 2 49 6 90 10 41 4 80 8 85 8 10 2 11 -4 2 -93 -3 -30
-9 -86 -12 -125 -3 -38 -10 -106 -15 -150 -5 -44 -12 -107 -15 -140 -3 -33 -8
-76 -10 -95 -3 -19 -7 -66 -11 -105 -3 -38 -7 -81 -9 -95 -2 -14 -7 -59 -11
-100 -3 -41 -8 -86 -9 -100 -1 -14 -6 -55 -10 -92 -4 -38 -5 -68 -2 -68 3 0
218 154 382 274 58 43 286 208 402 292 73 52 135 100 138 105 4 5 11 9 16 9
11 0 26 -31 193 -408 65 -144 124 -275 132 -290 7 -15 14 -30 14 -34 0 -4 16
-42 36 -85 82 -179 91 -199 98 -220 4 -13 10 -23 14 -23 4 0 38 71 76 158 38
86 84 189 102 227 17 39 64 144 104 235 40 91 88 199 107 240 19 41 38 84 43
95 35 83 46 104 56 101 6 -2 174 -122 375 -266 200 -145 387 -279 414 -298 28
-19 64 -45 80 -57 50 -37 90 -61 83 -50 -3 6 -9 42 -13 80 -3 39 -8 81 -10 95
-2 14 -6 57 -10 95 -3 39 -8 84 -10 100 -3 17 -7 62 -10 100 -3 39 -8 84 -10
100 -2 17 -7 57 -10 90 -8 92 -15 165 -21 215 -8 63 -12 104 -19 190 -4 41 -8
79 -8 84 -2 11 27 12 108 3 33 -4 83 -9 110 -12 28 -2 91 -9 140 -15 50 -5
124 -12 165 -15 41 -3 85 -8 98 -10 13 -2 53 -7 90 -10 37 -4 83 -8 102 -11
19 -2 67 -6 105 -9 39 -3 84 -8 101 -10 83 -12 144 -16 144 -10 0 5 -21 36
-63 90 -11 15 -81 110 -276 380 -96 132 -212 291 -259 354 -46 62 -80 117 -75
122 7 7 47 26 303 139 47 21 119 53 160 72 41 19 191 86 333 148 141 63 257
117 257 121 0 4 -15 12 -32 20 -18 7 -62 26 -98 42 -36 16 -256 115 -490 219
-234 105 -429 194 -433 198 -5 4 68 113 160 241 93 129 182 253 199 276 16 23
90 126 165 230 168 233 158 216 123 209 -16 -3 -53 -8 -81 -11 -109 -11 -159
-16 -193 -20 -19 -2 -64 -7 -100 -10 -106 -11 -222 -23 -280 -30 -19 -2 -64
-7 -100 -10 -79 -7 -134 -13 -180 -20 -19 -2 -69 -7 -110 -11 -41 -3 -79 -7
-85 -7 -5 -1 -9 7 -8 18 1 11 5 56 8 100 4 44 8 87 10 95 1 8 6 53 10 100 4
47 9 96 10 110 7 57 15 139 20 195 3 33 8 76 10 95 5 37 11 95 20 195 4 33 8
74 10 90 19 161 18 168 -3 156 -11 -6 -26 -17 -34 -23 -7 -7 -32 -26 -56 -41
-23 -15 -50 -34 -60 -42 -14 -12 -135 -100 -262 -192 -189 -136 -368 -266
-380 -276 -81 -64 -133 -98 -140 -91 -5 5 -77 162 -160 349 -173 388 -167 375
-212 475 -19 41 -50 110 -69 152 -19 43 -36 77 -39 78 -3 0 -49 -98 -102 -218z"/>
</g>
</svg>
